<?xml version="1.0" encoding="UTF-8"?>
<svg id="Laag_1" data-name="Laag 1" xmlns="http://www.w3.org/2000/svg" version="1.1" viewBox="0 0 800 800">
  <defs>
    <style>
      .cls-1 {
        fill: #000;
        fill-rule: evenodd;
        stroke-width: 0px;
      }
    </style>
  </defs>
  <path class="cls-1" d="M288.9,41.7c-75.2,0-136.1,60.9-136.1,136.1s22.7,86.5,57.5,111.1c-34.8,24.7-57.5,65.2-57.5,111.1s22.7,86.5,57.5,111.1c-34.8,24.7-57.5,65.2-57.5,111.1,0,75.2,60.9,136.1,136.1,136.1s136.1-60.9,136.1-136.1v-116.8c23.5,19.2,53.4,30.7,86.1,30.7,75.2,0,136.1-60.9,136.1-136.1s-22.7-86.5-57.5-111.1c34.8-24.7,57.5-65.2,57.5-111.1,0-75.2-60.9-136.1-136.1-136.1h-222.2ZM375,486.1h-86.1c-47.6,0-86.1-38.6-86.1-86.1s38.6-86.1,86.1-86.1h86.1s0,86.1,0,86.1v86.1ZM288.9,263.9h86.1V91.7h-86.1c-47.6,0-86.1,38.6-86.1,86.1s38.6,86.1,86.1,86.1ZM597.2,177.8c0,47.5-38.5,86.1-86,86.1h-43.1s-43.1,0-43.1,0V91.7h86.1c47.6,0,86.1,38.6,86.1,86.1ZM425,399.9c0-47.5,38.5-85.9,86-86h.2c47.5,0,86,38.6,86,86.1s-38.6,86.1-86.1,86.1-86.1-38.5-86.1-86v-.2ZM288.9,536.1c-47.6,0-86.1,38.6-86.1,86.1s38.6,86.1,86.1,86.1,86.1-38.6,86.1-86.1v-86.1h-86.1Z"/>
</svg>